<svg width="14" height="10" viewBox="0 0 14 10" fill="none" xmlns="http://www.w3.org/2000/svg">
<path id="Vector" d="M12.9616 0.847553L12.9616 0.847547L12.9595 0.845793C12.6537 0.592982 12.2603 0.471268 11.8652 0.507164C11.47 0.54306 11.1051 0.733659 10.8498 1.03744L10.8485 1.03898L7.00004 5.6565L3.15152 1.03905L3.15131 1.0388C2.89643 0.733408 2.53067 0.541776 2.1345 0.506061C1.73832 0.470345 1.34419 0.593471 1.0388 0.848352C0.733408 1.10323 0.541776 1.46899 0.506061 1.86516C0.470356 2.26121 0.593394 2.65522 0.848114 2.96057C0.848157 2.96063 0.848201 2.96068 0.848245 2.96073C0.84828 2.96077 0.848316 2.96082 0.848352 2.96086L5.84833 8.96077L5.84844 8.96089C5.98916 9.12965 6.16526 9.26542 6.36426 9.35858C6.56327 9.45175 6.78032 9.50005 7.00005 9.50005C7.21978 9.50005 7.43683 9.45175 7.63584 9.35858C7.83484 9.26542 8.01094 9.12965 8.15166 8.96089L8.15177 8.96076L13.152 2.96052C13.4066 2.65496 13.5296 2.26082 13.4939 1.86465C13.4583 1.46849 13.2668 1.10268 12.9616 0.847553Z" fill="#FDF6FD" stroke="#6C2863"/>
</svg>
