<svg width="206" height="195" viewBox="0 0 206 195" fill="none" xmlns="http://www.w3.org/2000/svg">
<rect x="8.08887" y="74.9473" width="7.44024" height="118.3" transform="rotate(-16.1862 8.08887 74.9473)" fill="#6C2863"/>
<rect x="54.4424" y="39.7999" width="7.44024" height="87.7948" transform="rotate(-16.1862 54.4424 39.7999)" fill="#6C2863"/>
<rect x="50.3467" y="34.2189" width="7.44024" height="51.758" transform="rotate(50.3318 50.3467 34.2189)" fill="#6C2863"/>
<rect x="111.733" y="34.8737" width="7.44024" height="49.6188" transform="rotate(95.0042 111.733 34.8737)" fill="#6C2863"/>
<rect x="143.719" y="155.745" width="7.44024" height="49.6188" transform="rotate(95.0042 143.719 155.745)" fill="#6C2863"/>
<rect x="152.04" y="2.94881" width="7.44024" height="50.0624" transform="rotate(50.3318 152.04 2.94881)" fill="#6C2863"/>
<rect x="87.6357" y="153.622" width="7.44024" height="51.2682" transform="rotate(50.3318 87.6357 153.622)" fill="#6C2863"/>
<rect x="191.879" y="127.076" width="7.44024" height="49.4327" transform="rotate(56.6832 191.879 127.076)" fill="#6C2863"/>
<rect x="111.073" y="42.7302" width="7.44024" height="46.1295" transform="rotate(-16.1862 111.073 42.7302)" fill="#6C2863"/>
<rect x="128.288" y="102.036" width="7.44024" height="55.8018" transform="rotate(-16.1862 128.288 102.036)" fill="#6C2863"/>
<rect x="82.8564" y="137.691" width="7.44024" height="16.3685" transform="rotate(-16.1862 82.8564 137.691)" fill="#6C2863"/>
<rect x="156.92" y="8.50481" width="7.44024" height="123.508" transform="rotate(-16.1862 156.92 8.50481)" fill="#6C2863"/>
<rect x="58.3779" y="149.444" width="7.44024" height="7.44024" transform="rotate(-16.1862 58.3779 149.444)" fill="#6C2863"/>
<rect x="66.2148" y="141.746" width="7.44024" height="7.44024" transform="rotate(-16.1862 66.2148 141.746)" fill="#6C2863"/>
<rect x="73.4297" y="131.905" width="7.44024" height="7.44024" transform="rotate(-16.1862 73.4297 131.905)" fill="#6C2863"/>
<rect x="84.1475" y="128.794" width="7.44024" height="7.44024" transform="rotate(-16.1862 84.1475 128.794)" fill="#6C2863"/>
<rect x="96.2256" y="133.036" width="7.44024" height="7.44024" transform="rotate(-16.1862 96.2256 133.036)" fill="#6C2863"/>
<rect x="108.395" y="134.926" width="7.44024" height="7.44024" transform="rotate(-16.1862 108.395 134.926)" fill="#6C2863"/>
<rect x="104.754" y="119.714" width="7.44024" height="7.44024" transform="rotate(-16.1862 104.754 119.714)" fill="#6C2863"/>
<rect x="102.15" y="108.074" width="7.44024" height="7.44024" transform="rotate(-16.1862 102.15 108.074)" fill="#6C2863"/>
<rect x="97.8174" y="98.4851" width="7.44024" height="7.44024" transform="rotate(-16.1862 97.8174 98.4851)" fill="#6C2863"/>
<rect x="96.1357" y="87.3523" width="7.44024" height="7.44024" transform="rotate(-16.1862 96.1357 87.3523)" fill="#6C2863"/>
<rect x="107.798" y="90.1649" width="7.44024" height="7.44024" transform="rotate(-16.1862 107.798 90.1649)" fill="#6C2863"/>
<rect x="119.876" y="94.4066" width="7.44024" height="7.44024" transform="rotate(-16.1862 119.876 94.4066)" fill="#6C2863"/>
<rect x="128.75" y="90.2813" width="7.44024" height="7.44024" transform="rotate(-16.1862 128.75 90.2813)" fill="#6C2863"/>
<rect x="137.094" y="81.6614" width="7.44024" height="7.44024" transform="rotate(-16.1862 137.094 81.6614)" fill="#6C2863"/>
<rect x="146.36" y="73.5486" width="7.44024" height="7.44024" transform="rotate(-16.1862 146.36 73.5486)" fill="#6C2863"/>
</svg>
