<svg width="343" height="124" viewBox="0 0 343 124" fill="none" xmlns="http://www.w3.org/2000/svg">
<path d="M105.85 0H115.85V10H105.85V0Z" fill="#6C2863"/>
<path d="M95.8501 15C95.8501 12.2386 98.0887 10 100.85 10H105.85V20H95.8501V15Z" fill="#6C2863"/>
<path d="M95.8501 20H105.85V30H95.8501V20Z" fill="#6C2863"/>
<path d="M95.8501 30H105.85V40H95.8501V30Z" fill="#6C2863"/>
<path d="M115.85 20H125.85V30H115.85V20Z" fill="#6C2863"/>
<path d="M105.85 20H115.85V30H105.85V20Z" fill="#6C2863"/>
<path d="M115.85 30H125.85V35C125.85 37.7614 123.612 40 120.85 40H115.85V30Z" fill="#6C2863"/>
<path d="M115.85 10H125.85V20H115.85V10Z" fill="#6C2863"/>
<path d="M55.8501 30H65.8501V40H55.8501V30Z" fill="#6C2863"/>
<path d="M55.8501 20H65.8501V30H55.8501V20Z" fill="#6C2863"/>
<path d="M55.8501 10H65.8501V20H55.8501V10Z" fill="#6C2863"/>
<path d="M55.8501 0H65.8501V10H55.8501V0Z" fill="#6C2863"/>
<path d="M57.8501 5H67.8501V15H57.8501V5Z" fill="#6C2863"/>
<path d="M75.8501 0H85.8501V10H75.8501V0Z" fill="#6C2863"/>
<path d="M75.8501 10H85.8501V20H75.8501V10Z" fill="#6C2863"/>
<path d="M75.8501 10H85.8501V20H75.8501V10Z" fill="#6C2863"/>
<path d="M73.8501 5H83.8501V15H73.8501V5Z" fill="#6C2863"/>
<path d="M71.8501 10H81.8501V20H71.8501V10Z" fill="#6C2863"/>
<path d="M70.8501 15H72.8501V25H70.8501V15Z" fill="#6C2863"/>
<path d="M68.8501 15H70.8501V25H68.8501V15Z" fill="#6C2863"/>
<path d="M59.8501 10H69.8501V20H59.8501V10Z" fill="#6C2863"/>
<path d="M75.8501 20H85.8501V30H75.8501V20Z" fill="#6C2863"/>
<path d="M75.8501 30H85.8501V40H75.8501V30Z" fill="#6C2863"/>
<path d="M215.85 0H225.85V10H215.85V0Z" fill="#6C2863"/>
<path d="M215.85 10H225.85V20H215.85V10Z" fill="#6C2863"/>
<path d="M215.85 20H225.85V30H215.85V20Z" fill="#6C2863"/>
<path d="M215.85 30H225.85V40H215.85V30Z" fill="#6C2863"/>
<path d="M225.85 0H235.85V10H225.85V0Z" fill="#6C2863"/>
<path d="M235.85 10H245.85V20H235.85V10Z" fill="#6C2863"/>
<path d="M235.85 20H245.85V30H235.85V20Z" fill="#6C2863"/>
<path d="M225.85 30H235.85V40H225.85V30Z" fill="#6C2863"/>
<path d="M235.85 30H245.85V40H235.85V30Z" fill="#6C2863"/>
<path d="M255.85 0L265.85 0V10H255.85V0Z" fill="#6C2863"/>
<path d="M265.85 0L275.85 0V10H265.85V0Z" fill="#6C2863"/>
<path d="M275.85 0L285.85 0V10H275.85V0Z" fill="#6C2863"/>
<path d="M265.85 10H275.85V20H265.85V10Z" fill="#6C2863"/>
<path d="M265.85 20H275.85V30H265.85V20Z" fill="#6C2863"/>
<path d="M265.85 30H275.85V35C275.85 37.7614 273.612 40 270.85 40H265.85V30Z" fill="#6C2863"/>
<path d="M175.85 0H185.85V10H175.85V0Z" fill="#6C2863"/>
<path d="M185.85 20H195.85V30H185.85V20Z" fill="#6C2863"/>
<path d="M195.85 30H205.85V40H195.85V30Z" fill="#6C2863"/>
<path d="M190.85 10H200.85V20H190.85V10Z" fill="#6C2863"/>
<path d="M195.85 0H200.85C203.612 0 205.85 2.23858 205.85 5V10H195.85V0Z" fill="#6C2863"/>
<path d="M175.85 20H185.85V30H175.85V20Z" fill="#6C2863"/>
<path d="M175.85 10H185.85V20H175.85V10Z" fill="#6C2863"/>
<path d="M175.85 30H185.85V40H180.85C178.089 40 175.85 37.7614 175.85 35V30Z" fill="#6C2863"/>
<path d="M145.85 0H155.85V10H145.85V0Z" fill="#6C2863"/>
<path d="M155.85 4H160.85C163.612 4 165.85 6.23858 165.85 9V14H155.85V4Z" fill="#6C2863"/>
<path d="M135.85 4H145.85V14H135.85V4Z" fill="#6C2863"/>
<path d="M145.85 17H155.85V27H145.85V17Z" fill="#6C2863"/>
<path d="M135.85 14H145.85V24H135.85V14Z" fill="#6C2863"/>
<path d="M145.85 30H155.85V40H145.85V30Z" fill="#6C2863"/>
<path d="M155.85 25H165.85V35H155.85V25Z" fill="#6C2863"/>
<path d="M135.85 30H145.85V40H140.85C138.089 40 135.85 37.7614 135.85 35V30Z" fill="#6C2863"/>
<path d="M160 88.9133C160 86.1998 162.2 84 164.913 84H170V94H160V88.9133Z" fill="#6C2863"/>
<path d="M160 104H170V114H160V104Z" fill="#6C2863"/>
<path d="M160 94H170V104H160V94Z" fill="#6C2863"/>
<path d="M160 114H170V124H160V114Z" fill="#6C2863"/>
<path d="M120 84H130V94H120V84Z" fill="#6C2863"/>
<path d="M130 84H140V94H130V84Z" fill="#6C2863"/>
<path d="M140 84H150V94H140V84Z" fill="#6C2863"/>
<path d="M130 94H140V104H130V94Z" fill="#6C2863"/>
<path d="M130 104H140V114H130V104Z" fill="#6C2863"/>
<path d="M130 114H140V119.087C140 121.8 137.8 124 135.087 124H130V114Z" fill="#6C2863"/>
<path d="M80 114H90V124H84.9133C82.1998 124 80 121.8 80 119.087V114Z" fill="#6C2863"/>
<path d="M80 104H90V114H80V104Z" fill="#6C2863"/>
<path d="M80 94H90V104H80V94Z" fill="#6C2863"/>
<path d="M80 84H90V94H80V84Z" fill="#6C2863"/>
<path d="M95 94H105V104H95V94Z" fill="#6C2863"/>
<path d="M100 114H110V124H100V114Z" fill="#6C2863"/>
<path d="M90 104H100V114H90V104Z" fill="#6C2863"/>
<path d="M100 84H105.087C107.8 84 110 86.1998 110 88.9133V94H100V84Z" fill="#6C2863"/>
<path d="M50 84H60V94H50V84Z" fill="#6C2863"/>
<path d="M50 104H60V114H50V104Z" fill="#6C2863"/>
<path d="M60 114H70V119.087C70 121.8 67.8002 124 65.0867 124H60V114Z" fill="#6C2863"/>
<path d="M60 94H70V104H60V94Z" fill="#6C2863"/>
<path d="M40 98.9133C40 96.1998 42.1998 94 44.9133 94H50V104H40V98.9133Z" fill="#6C2863"/>
<path d="M40 104H50V114H40V104Z" fill="#6C2863"/>
<path d="M40 114H50V124H40V114Z" fill="#6C2863"/>
<path d="M60 104H70V114H60V104Z" fill="#6C2863"/>
<path d="M20 114H30V119.087C30 121.8 27.8002 124 25.0867 124H20V114Z" fill="#6C2863"/>
<path d="M0 104H10V114H0V104Z" fill="#6C2863"/>
<path d="M0 94H10V104H0V94Z" fill="#6C2863"/>
<path d="M0 88.9133C0 86.1998 2.19975 84 4.91329 84H10V94H0V88.9133Z" fill="#6C2863"/>
<path d="M10 84H20V94H10V84Z" fill="#6C2863"/>
<path d="M10 114H20V124H10V114Z" fill="#6C2863"/>
<path d="M10 99H20V109H10V99Z" fill="#6C2863"/>
<path d="M20 106.5H30V116.5H20V106.5Z" fill="#6C2863"/>
<path d="M20 91.5H30V101.5H20V91.5Z" fill="#6C2863"/>
<path d="M313.4 90C313.4 87.2386 315.639 85 318.4 85H323V94.6H313.4V90Z" fill="#6C2863"/>
<path d="M323 85H332.6V94.6H323V85Z" fill="#6C2863"/>
<path d="M332.601 94.6H342.201V104.2H332.601V94.6Z" fill="#6C2863"/>
<path d="M332.601 104.2H342.201V113.8H332.601V104.2Z" fill="#6C2863"/>
<path d="M332.601 113.8H342.201V118.4C342.201 121.161 339.962 123.4 337.201 123.4H332.601V113.8Z" fill="#6C2863"/>
<path d="M323 113.8H332.6V123.4H323V113.8Z" fill="#6C2863"/>
<path d="M313.4 113.8H323V123.4H313.4V113.8Z" fill="#6C2863"/>
<path d="M323 99.4H332.6V109H323V99.4Z" fill="#6C2863"/>
<path d="M294.8 93.6H304.4V103.2H294.8V93.6Z" fill="#6C2863"/>
<path d="M285.2 84H294.8V93.6H285.2V84Z" fill="#6C2863"/>
<path d="M275.601 114.4H285.201V124H275.601V114.4Z" fill="#6C2863"/>
<path d="M275.601 109.8C275.601 107.039 277.839 104.8 280.601 104.8H285.201V114.4H275.601V109.8Z" fill="#6C2863"/>
<path d="M275.601 89C275.601 86.2386 277.839 84 280.601 84H285.201V93.6H275.601V89Z" fill="#6C2863"/>
<path d="M285.2 114.4H294.8V124H285.2V114.4Z" fill="#6C2863"/>
<path d="M294.8 114.4H304.4V124H294.8V114.4Z" fill="#6C2863"/>
<path d="M257 113.8H266.6V123.4H257V113.8Z" fill="#6C2863"/>
<path d="M237.8 85H247.4V94.6H237.8V85Z" fill="#6C2863"/>
<path d="M237.8 94.6H247.4V104.2H237.8V94.6Z" fill="#6C2863"/>
<path d="M247.4 85H252C254.762 85 257 87.2386 257 90V94.6H247.4V85Z" fill="#6C2863"/>
<path d="M257 94.6H266.6V104.2H257V94.6Z" fill="#6C2863"/>
<path d="M257 104.2H266.6V113.8H257V104.2Z" fill="#6C2863"/>
<path d="M247.4 113.8H257V123.4H247.4V113.8Z" fill="#6C2863"/>
<path d="M237.8 104.2H247.4V113.8H242.8C240.039 113.8 237.8 111.561 237.8 108.8V104.2Z" fill="#6C2863"/>
<path d="M219.2 93.6H228.8V103.2H219.2V93.6Z" fill="#6C2863"/>
<path d="M209.6 84H219.2V93.6H209.6V84Z" fill="#6C2863"/>
<path d="M200 114.4H209.6V124H200V114.4Z" fill="#6C2863"/>
<path d="M200 109.713C200 107 202.2 104.8 204.913 104.8H209.6V114.4H200V109.713Z" fill="#6C2863"/>
<path d="M200 88.9133C200 86.1998 202.2 84 204.913 84H209.6V93.6H200V88.9133Z" fill="#6C2863"/>
<path d="M209.6 114.4H219.2V124H209.6V114.4Z" fill="#6C2863"/>
<path d="M219.2 114.4H228.8V124H219.2V114.4Z" fill="#6C2863"/>
</svg>
