<svg width="530" height="308" viewBox="0 0 530 308" fill="none" xmlns="http://www.w3.org/2000/svg">
<rect x="80" y="100" width="20" height="20" fill="#6C2863"/>
<rect x="80" y="120" width="20" height="20" fill="#6C2863"/>
<path d="M80 140H100V160H89.2368C84.1355 160 80 155.865 80 150.763V140Z" fill="#6C2863"/>
<rect x="100" y="128" width="20" height="20" fill="#6C2863"/>
<rect x="100" y="100" width="20" height="20" fill="#6C2863"/>
<path d="M120 100H130.763C135.865 100 140 104.135 140 109.237V120H120V100Z" fill="#6C2863"/>
<rect x="100" y="160" width="20" height="20" fill="#6C2863"/>
<rect x="120" y="160" width="20" height="20" fill="#6C2863"/>
<rect y="100" width="20" height="20" fill="#6C2863"/>
<rect y="120" width="20" height="20" fill="#6C2863"/>
<rect y="140" width="20" height="20" fill="#6C2863"/>
<path d="M0 160H20V180H9.23684C4.13548 180 0 175.865 0 170.763V160Z" fill="#6C2863"/>
<rect x="20" y="100" width="20" height="20" fill="#6C2863"/>
<path d="M40 140H60V150.763C60 155.865 55.8645 160 50.7632 160H40V140Z" fill="#6C2863"/>
<rect x="40" y="120" width="20" height="20" fill="#6C2863"/>
<rect x="20" y="140" width="20" height="20" fill="#6C2863"/>
<rect x="260" y="100" width="20" height="20" fill="#6C2863"/>
<path d="M240 129.237C240 124.135 244.135 120 249.237 120H260V140H240V129.237Z" fill="#6C2863"/>
<rect x="240" y="140" width="20" height="20" fill="#6C2863"/>
<rect x="240" y="160" width="20" height="20" fill="#6C2863"/>
<rect x="280" y="140" width="20" height="20" fill="#6C2863"/>
<rect x="260" y="140" width="20" height="20" fill="#6C2863"/>
<path d="M280 160H300V170.763C300 175.865 295.865 180 290.763 180H280V160Z" fill="#6C2863"/>
<rect x="280" y="120" width="20" height="20" fill="#6C2863"/>
<rect x="160" y="100" width="20" height="20" fill="#6C2863"/>
<rect x="180" y="100" width="20" height="20" fill="#6C2863"/>
<rect x="200" y="100" width="20" height="20" fill="#6C2863"/>
<rect x="180" y="120" width="20" height="20" fill="#6C2863"/>
<rect x="180" y="140" width="20" height="20" fill="#6C2863"/>
<path d="M180 160H200V170.763C200 175.865 195.865 180 190.763 180H180V160Z" fill="#6C2863"/>
<rect x="180" y="228" width="20" height="20" fill="#6C2863"/>
<path d="M160 257.237C160 252.135 164.135 248 169.237 248H180V268H160V257.237Z" fill="#6C2863"/>
<rect x="160" y="268" width="20" height="20" fill="#6C2863"/>
<rect x="160" y="288" width="20" height="20" fill="#6C2863"/>
<rect x="200" y="268" width="20" height="20" fill="#6C2863"/>
<rect x="180" y="268" width="20" height="20" fill="#6C2863"/>
<path d="M200 288H220V298.763C220 303.864 215.865 308 210.763 308H200V288Z" fill="#6C2863"/>
<rect x="200" y="248" width="20" height="20" fill="#6C2863"/>
<path d="M80 237.237C80 232.135 84.1355 228 89.2368 228H100V248H80V237.237Z" fill="#6C2863"/>
<rect x="80" y="248" width="20" height="20" fill="#6C2863"/>
<rect x="80" y="268" width="20" height="20" fill="#6C2863"/>
<rect x="80" y="288" width="20" height="20" fill="#6C2863"/>
<rect x="90" y="248" width="20" height="20" fill="#6C2863"/>
<rect x="120" y="228" width="20" height="20" fill="#6C2863"/>
<rect x="120" y="248" width="20" height="20" fill="#6C2863"/>
<rect x="120" y="268" width="20" height="20" fill="#6C2863"/>
<rect x="110" y="268" width="20" height="20" fill="#6C2863"/>
<path d="M120 288H140V298.763C140 303.865 135.865 308 130.763 308H120V288Z" fill="#6C2863"/>
<path d="M240 237.237C240 232.135 244.135 228 249.237 228H260V248H240V237.237Z" fill="#6C2863"/>
<rect x="240" y="248" width="20" height="20" fill="#6C2863"/>
<rect x="240" y="268" width="20" height="20" fill="#6C2863"/>
<rect x="240" y="288" width="20" height="20" fill="#6C2863"/>
<rect x="250.001" y="248" width="20" height="20" fill="#6C2863"/>
<rect x="280" y="228" width="20" height="20" fill="#6C2863"/>
<rect x="280" y="248" width="20" height="20" fill="#6C2863"/>
<rect x="280" y="268" width="20" height="20" fill="#6C2863"/>
<rect x="270" y="268" width="20" height="20" fill="#6C2863"/>
<path d="M280 288H300V298.763C300 303.864 295.865 308 290.763 308H280V288Z" fill="#6C2863"/>
<rect x="320" y="228" width="20" height="20" fill="#6C2863"/>
<rect x="320" y="248" width="20" height="20" fill="#6C2863"/>
<rect x="320" y="268" width="20" height="20" fill="#6C2863"/>
<rect x="320" y="288" width="20" height="20" fill="#6C2863"/>
<rect x="340" y="228" width="20" height="20" fill="#6C2863"/>
<rect x="360" y="248" width="20" height="20" fill="#6C2863"/>
<rect x="360" y="268" width="20" height="20" fill="#6C2863"/>
<rect x="340" y="288" width="20" height="20" fill="#6C2863"/>
<rect y="228" width="20" height="20" fill="#6C2863"/>
<rect y="248" width="20" height="20" fill="#6C2863"/>
<rect y="268" width="20" height="20" fill="#6C2863"/>
<rect x="20" y="288" width="20" height="20" fill="#6C2863"/>
<path d="M0 288H20V308H9.23684C4.13548 308 0 303.865 0 298.763V288Z" fill="#6C2863"/>
<rect x="40" y="268" width="20" height="20" fill="#6C2863"/>
<rect x="40" y="248" width="20" height="20" fill="#6C2863"/>
<path d="M40 228H50.7632C55.8645 228 60 232.135 60 237.237V248H40V228Z" fill="#6C2863"/>
<rect x="332.089" y="74.9473" width="7.44024" height="118.3" transform="rotate(-16.1862 332.089 74.9473)" fill="#6C2863"/>
<rect x="378.442" y="39.7999" width="7.44024" height="87.7948" transform="rotate(-16.1862 378.442 39.7999)" fill="#6C2863"/>
<rect x="374.347" y="34.2189" width="7.44024" height="51.758" transform="rotate(50.3318 374.347 34.2189)" fill="#6C2863"/>
<rect x="435.733" y="34.8737" width="7.44024" height="49.6188" transform="rotate(95.0042 435.733 34.8737)" fill="#6C2863"/>
<rect x="467.719" y="155.745" width="7.44024" height="49.6188" transform="rotate(95.0042 467.719 155.745)" fill="#6C2863"/>
<rect x="476.04" y="2.94881" width="7.44024" height="50.0624" transform="rotate(50.3318 476.04 2.94881)" fill="#6C2863"/>
<rect x="411.636" y="153.622" width="7.44024" height="51.2682" transform="rotate(50.3318 411.636 153.622)" fill="#6C2863"/>
<rect x="515.879" y="127.076" width="7.44024" height="49.4327" transform="rotate(56.6832 515.879 127.076)" fill="#6C2863"/>
<rect x="435.073" y="42.7302" width="7.44024" height="46.1295" transform="rotate(-16.1862 435.073 42.7302)" fill="#6C2863"/>
<rect x="452.288" y="102.036" width="7.44024" height="55.8018" transform="rotate(-16.1862 452.288 102.036)" fill="#6C2863"/>
<rect x="406.856" y="137.691" width="7.44024" height="16.3685" transform="rotate(-16.1862 406.856 137.691)" fill="#6C2863"/>
<rect x="480.92" y="8.50481" width="7.44024" height="123.508" transform="rotate(-16.1862 480.92 8.50481)" fill="#6C2863"/>
<rect x="382.378" y="149.444" width="7.44024" height="7.44024" transform="rotate(-16.1862 382.378 149.444)" fill="#6C2863"/>
<rect x="390.215" y="141.746" width="7.44024" height="7.44024" transform="rotate(-16.1862 390.215 141.746)" fill="#6C2863"/>
<rect x="397.43" y="131.905" width="7.44024" height="7.44024" transform="rotate(-16.1862 397.43 131.905)" fill="#6C2863"/>
<rect x="408.147" y="128.794" width="7.44024" height="7.44024" transform="rotate(-16.1862 408.147 128.794)" fill="#6C2863"/>
<rect x="420.226" y="133.036" width="7.44024" height="7.44024" transform="rotate(-16.1862 420.226 133.036)" fill="#6C2863"/>
<rect x="432.395" y="134.926" width="7.44024" height="7.44024" transform="rotate(-16.1862 432.395 134.926)" fill="#6C2863"/>
<rect x="428.754" y="119.714" width="7.44024" height="7.44024" transform="rotate(-16.1862 428.754 119.714)" fill="#6C2863"/>
<rect x="426.15" y="108.074" width="7.44024" height="7.44024" transform="rotate(-16.1862 426.15 108.074)" fill="#6C2863"/>
<rect x="421.817" y="98.4851" width="7.44024" height="7.44024" transform="rotate(-16.1862 421.817 98.4851)" fill="#6C2863"/>
<rect x="420.136" y="87.3523" width="7.44024" height="7.44024" transform="rotate(-16.1862 420.136 87.3523)" fill="#6C2863"/>
<rect x="431.798" y="90.1649" width="7.44024" height="7.44024" transform="rotate(-16.1862 431.798 90.1649)" fill="#6C2863"/>
<rect x="443.876" y="94.4066" width="7.44024" height="7.44024" transform="rotate(-16.1862 443.876 94.4066)" fill="#6C2863"/>
<rect x="452.75" y="90.2813" width="7.44024" height="7.44024" transform="rotate(-16.1862 452.75 90.2813)" fill="#6C2863"/>
<rect x="461.094" y="81.6614" width="7.44024" height="7.44024" transform="rotate(-16.1862 461.094 81.6614)" fill="#6C2863"/>
<rect x="470.36" y="73.5486" width="7.44024" height="7.44024" transform="rotate(-16.1862 470.36 73.5486)" fill="#6C2863"/>
</svg>
